<svg width="48" height="48" viewBox="0 0 48 48" fill="none" xmlns="http://www.w3.org/2000/svg">
<g clip-path="url(#clip0_2966_32983)">
<path d="M25.8787 24.0002L36.932 12.9468C37.1504 12.6918 37.2646 12.3637 37.2516 12.0281C37.2386 11.6925 37.0995 11.3742 36.8621 11.1367C36.6246 10.8993 36.3063 10.7602 35.9707 10.7472C35.6352 10.7343 35.3071 10.8484 35.052 11.0668L23.9987 22.1202L12.9453 11.0535C12.6943 10.8024 12.3537 10.6614 11.9987 10.6614C11.6436 10.6614 11.3031 10.8024 11.052 11.0535C10.8009 11.3046 10.6599 11.6451 10.6599 12.0002C10.6599 12.3552 10.8009 12.6958 11.052 12.9468L22.1187 24.0002L11.052 35.0535C10.9124 35.173 10.7991 35.3201 10.719 35.4855C10.639 35.651 10.594 35.8311 10.5869 36.0148C10.5798 36.1984 10.6108 36.3815 10.6778 36.5526C10.7448 36.7237 10.8465 36.8791 10.9765 37.009C11.1064 37.139 11.2618 37.2406 11.4329 37.3077C11.604 37.3747 11.7871 37.4057 11.9707 37.3986C12.1544 37.3915 12.3345 37.3465 12.5 37.2665C12.6654 37.1864 12.8125 37.0731 12.932 36.9335L23.9987 25.8802L35.052 36.9335C35.3071 37.1519 35.6352 37.2661 35.9707 37.2531C36.3063 37.2402 36.6246 37.101 36.8621 36.8636C37.0995 36.6261 37.2386 36.3078 37.2516 35.9722C37.2646 35.6367 37.1504 35.3086 36.932 35.0535L25.8787 24.0002Z" fill="#ACACAC"/>
</g>
<defs>
<clipPath id="clip0_2966_32983">
<rect width="48" height="48" fill="white"/>
</clipPath>
</defs>
</svg>
