<svg width="13" height="8" viewBox="0 0 13 8" fill="none" xmlns="http://www.w3.org/2000/svg">
<path d="M6.28571 0.000488281C3.46514 0.000488281 1.31886 1.74792 0 4.00049C1.31886 6.25306 3.46514 8.00049 6.28571 8.00049C9.10629 8.00049 11.2531 6.25306 12.5714 4.00049C11.2531 1.74792 9.10571 0.000488281 6.28571 0.000488281ZM6.28571 6.85763C3.82286 6.85763 2.28057 5.30735 1.35771 4.00049C2.28057 2.69363 3.82286 1.14335 6.28571 1.14335C8.74914 1.14335 10.2914 2.69363 11.2137 4.00049C10.2914 5.30735 8.74914 6.85763 6.28571 6.85763Z" fill="#FF7A00"/>
<path d="M6.2846 5.71483C7.23137 5.71483 7.99888 4.94731 7.99888 4.00054C7.99888 3.05377 7.23137 2.28625 6.2846 2.28625C5.33782 2.28625 4.57031 3.05377 4.57031 4.00054C4.57031 4.94731 5.33782 5.71483 6.2846 5.71483Z" fill="#FF7A00"/>
</svg>
