<svg width="86" height="86" viewBox="0 0 86 86" fill="none" xmlns="http://www.w3.org/2000/svg">
<path d="M80.625 40.3125H43V16.125C42.9986 14.6999 42.4318 13.3336 41.4241 12.3259C40.4164 11.3182 39.0501 10.7514 37.625 10.75H16.125C14.6999 10.7514 13.3336 11.3182 12.3259 12.3259C11.3182 13.3336 10.7514 14.6999 10.75 16.125V40.3125H5.375V45.6875H43V69.875C43.0014 71.3001 43.5682 72.6664 44.5759 73.6741C45.5836 74.6818 46.9499 75.2486 48.375 75.25H69.875C71.3001 75.2486 72.6664 74.6818 73.6741 73.6741C74.6818 72.6664 75.2486 71.3001 75.25 69.875V45.6875H80.625V40.3125ZM16.125 16.125H37.625V40.3125H16.125V16.125ZM69.875 69.875H48.375V45.6875H69.875V69.875Z" fill="#7F8B94"/>
</svg>
